<?xml version="1.0" encoding="UTF-8" standalone="no"?>
<svg
   xmlns:dc="http://purl.org/dc/elements/1.1/"
   xmlns:cc="http://creativecommons.org/ns#"
   xmlns:rdf="http://www.w3.org/1999/02/22-rdf-syntax-ns#"
   xmlns:svg="http://www.w3.org/2000/svg"
   xmlns="http://www.w3.org/2000/svg"
   xmlns:sodipodi="http://sodipodi.sourceforge.net/DTD/sodipodi-0.dtd"
   xmlns:inkscape="http://www.inkscape.org/namespaces/inkscape"
   width="500"
   height="200"
   viewBox="0 0 500 200"
   version="1.1"
   id="svg103"
   sodipodi:docname="namco.svg"
   style="fill:none"
   inkscape:version="0.92.5 (2060ec1f9f, 2020-04-08)">
  <metadata
     id="metadata109">
    <rdf:RDF>
      <cc:Work
         rdf:about="">
        <dc:format>image/svg+xml</dc:format>
        <dc:type
           rdf:resource="http://purl.org/dc/dcmitype/StillImage" />
        <dc:title />
      </cc:Work>
    </rdf:RDF>
  </metadata>
  <defs
     id="defs107" />
  <sodipodi:namedview
     pagecolor="#ffffff"
     bordercolor="#666666"
     borderopacity="1"
     objecttolerance="10"
     gridtolerance="10"
     guidetolerance="10"
     inkscape:pageopacity="0"
     inkscape:pageshadow="2"
     inkscape:window-width="1366"
     inkscape:window-height="743"
     id="namedview105"
     showgrid="false"
     inkscape:pagecheckerboard="true"
     inkscape:zoom="1.7058516"
     inkscape:cx="439.40134"
     inkscape:cy="60.722972"
     inkscape:window-x="0"
     inkscape:window-y="0"
     inkscape:window-maximized="1"
     inkscape:current-layer="svg103" />
  <path
     d="m 14.73593,197.47466 c -1.486636,0.67971 -3.016438,1.01958 -4.58942,1.01958 -1.5154371,0 -2.930154,-0.27181 -4.2441737,-0.81569 -1.3140197,-0.54375 -2.4505982,-1.28176 -3.4097232,-2.21387 -0.9591374,-0.93224 -1.7120561,-2.03918 -2.25876965,-3.32106 -0.54670723,-1.28175 -0.8200609,-2.66062 -0.8200609,-4.13649 0,-1.476 0.27814904,-2.8597 0.83444851,-4.15123 0.55630322,-1.29153 1.31400984,-2.40329 2.27314724,-3.33552 0.9591374,-0.93224 2.0957159,-1.67012 3.4097356,-2.21399 1.3140074,-0.54377 2.7191482,-0.81558 4.2153961,-0.81558 1.611348,0 3.17479,0.34469 4.690129,1.03407 1.515462,0.68949 2.74315,1.61679 3.683185,2.78199 l -2.819857,2.8258 c -0.70979,-0.89339 -1.54429,-1.57794 -2.503378,-2.05377 -0.959211,-0.47584 -1.975842,-0.71376 -3.050079,-0.71376 -0.9015821,0 -1.7504215,0.17 -2.5465065,0.50986 -0.796085,0.33986 -1.48186,0.80592 -2.0573498,1.3983 -0.5754775,0.59225 -1.0262687,1.2914 -1.3523734,2.09745 -0.3261047,0.80592 -0.4891571,1.68471 -0.4891571,2.63638 0,0.93211 0.1678404,1.80125 0.5035459,2.60718 0.3356932,0.80592 0.796085,1.50024 1.3811509,2.08284 0.5850783,0.58261 1.2756537,1.04384 2.0717387,1.3837 0.7960727,0.33986 1.6640895,0.50985 2.6040503,0.50985 1.055046,0 2.042949,-0.22331 2.963683,-0.67006 0.920858,-0.44664 1.736058,-1.08752 2.445848,-1.92263 l 2.733499,2.73832 c -0.959088,1.14579 -2.18195,2.0586 -3.668709,2.73833 z m 54.138482,0.23309 c -1.304394,0.54375 -2.704796,0.81569 -4.201082,0.81569 -1.476986,0 -2.867737,-0.27194 -4.172131,-0.81569 -1.304518,-0.54376 -2.431495,-1.28671 -3.381057,-2.2286 -0.949561,-0.94189 -1.702406,-2.0586 -2.258781,-3.35 -0.556251,-1.29153 -0.834377,-2.66557 -0.834377,-4.12202 0,-1.45658 0.278126,-2.83062 0.834377,-4.12215 0.556375,-1.2914 1.30922,-2.40812 2.258781,-3.35001 0.949562,-0.94189 2.076539,-1.68471 3.381057,-2.22858 1.304394,-0.54377 2.695145,-0.81558 4.172131,-0.81558 1.496286,0 2.896688,0.27181 4.201082,0.81558 1.304394,0.54387 2.431372,1.28669 3.380933,2.22858 0.949562,0.94189 1.702406,2.05861 2.258781,3.35001 0.556251,1.29153 0.834376,2.66557 0.834376,4.12215 0,1.45645 -0.278125,2.83049 -0.834376,4.12202 -0.556375,1.2914 -1.309219,2.40811 -2.258781,3.35 -0.949561,0.94189 -2.076539,1.68484 -3.380933,2.2286 z m -4.201082,-3.05877 c -0.901557,0 -1.74076,-0.16999 -2.517729,-0.50985 -0.776847,-0.33987 -1.448282,-0.80593 -2.014184,-1.39831 -0.565902,-0.59225 -1.011793,-1.29634 -1.337923,-2.11191 -0.326129,-0.8157 -0.489194,-1.68967 -0.489194,-2.62178 0,-0.95167 0.163065,-1.83046 0.489194,-2.63638 0.32613,-0.80605 0.772021,-1.5052 1.337923,-2.09745 0.565902,-0.59238 1.237337,-1.05844 2.014184,-1.3983 0.776969,-0.33986 1.616172,-0.50986 2.517729,-0.50986 0.901682,0 1.745708,0.17 2.532205,0.50986 0.786497,0.33986 1.462634,0.80592 2.028535,1.3983 0.565901,0.59225 1.011917,1.2914 1.338047,2.09745 0.326005,0.80592 0.48907,1.68471 0.48907,2.63638 0,0.93211 -0.163065,1.80608 -0.48907,2.62178 -0.32613,0.81557 -0.772146,1.51966 -1.338047,2.11191 -0.565901,0.59238 -1.242038,1.05844 -2.028535,1.39831 -0.786497,0.33986 -1.630523,0.50985 -2.532205,0.50985 z m 63.24486,-0.17481 v 3.72883 h -15.19211 v -20.39175 h 4.17226 v 16.66292 z m 52.60013,3.72883 v -3.72883 h -11.02109 v -16.66292 h -4.17188 V 198.203 Z m 53.001,-3.67056 v 3.67056 h -15.59508 v -20.39175 h 15.48002 v 3.67045 h -11.30814 v 4.66094 h 7.45298 v 3.55403 h -7.45298 v 4.83577 z m 46.26931,3.9618 c 1.57249,0 3.10293,-0.33987 4.58882,-1.01958 1.48713,-0.67973 2.70949,-1.59254 3.66957,-2.73833 l -2.73423,-2.73832 c -0.71016,0.83511 -1.52426,1.47599 -2.44598,1.92263 -0.92048,0.44675 -1.90778,0.67006 -2.96312,0.67006 -0.94029,0 -1.80881,-0.16999 -2.60434,-0.50985 -0.79553,-0.33986 -1.48713,-0.80109 -2.0711,-1.3837 -0.58519,-0.5826 -1.04668,-1.27692 -1.38196,-2.08284 -0.33529,-0.80593 -0.50355,-1.67507 -0.50355,-2.60718 0,-0.95167 0.16331,-1.83046 0.48994,-2.63638 0.32538,-0.80605 0.77573,-1.5052 1.35227,-2.09745 0.5753,-0.59238 1.26072,-1.05844 2.05749,-1.3983 0.79553,-0.33986 1.64426,-0.50986 2.54619,-0.50986 1.07389,0 2.09089,0.23792 3.04973,0.71376 0.95883,0.47583 1.79395,1.16038 2.50288,2.05377 l 2.82084,-2.8258 c -0.94028,-1.1652 -2.16759,-2.0925 -3.68318,-2.78199 -1.51559,-0.68938 -3.07942,-1.03407 -4.69027,-1.03407 -1.49703,0 -2.90127,0.27181 -4.2152,0.81558 -1.31391,0.54387 -2.45091,1.28175 -3.40976,2.21399 -0.96007,0.93223 -1.71725,2.04399 -2.27399,3.33552 -0.55551,1.29153 -0.83388,2.67523 -0.83388,4.15123 0,1.47587 0.27343,2.85474 0.82027,4.13649 0.54684,1.28188 1.29907,2.38882 2.25792,3.32106 0.96007,0.93211 2.09584,1.67012 3.40976,2.21387 1.31391,0.54388 2.72929,0.81569 4.24488,0.81569 z m 55.18838,-16.95428 V 198.203 h -4.17189 v -16.66304 h -6.79106 v -3.72871 h 17.72432 v 3.72871 z m 47.79356,-3.72871 h -4.1719 V 198.203 h 4.1719 z m 52.25371,19.8965 c -1.30403,0.54375 -2.70456,0.81569 -4.20035,0.81569 -1.47722,0 -2.86786,-0.27194 -4.17311,-0.81569 -1.30403,-0.54376 -2.43113,-1.28671 -3.38008,-2.2286 -0.95017,-0.94189 -1.7024,-2.0586 -2.25915,-3.35 -0.55674,-1.29153 -0.83511,-2.66557 -0.83511,-4.12202 0,-1.45658 0.27837,-2.83062 0.83511,-4.12215 0.55675,-1.2914 1.30898,-2.40812 2.25915,-3.35001 0.94895,-0.94189 2.07605,-1.68471 3.38008,-2.22858 1.30525,-0.54377 2.69589,-0.81558 4.17311,-0.81558 1.49579,0 2.89632,0.27181 4.20035,0.81558 1.30401,0.54387 2.43112,1.28669 3.3813,2.22858 0.94894,0.94189 1.70241,2.05861 2.25915,3.35001 0.55551,1.29153 0.83388,2.66557 0.83388,4.12215 0,1.45645 -0.27837,2.83049 -0.83388,4.12202 -0.55674,1.2914 -1.31021,2.40811 -2.25915,3.35 -0.95018,0.94189 -2.07729,1.68484 -3.3813,2.2286 z m -4.20035,-3.05877 c -0.90192,0 -1.74076,-0.16999 -2.51773,-0.50985 -0.77697,-0.33987 -1.44877,-0.80593 -2.01418,-1.39831 -0.56664,-0.59225 -1.01204,-1.29634 -1.33866,-2.11191 -0.3254,-0.8157 -0.48871,-1.68967 -0.48871,-2.62178 0,-0.95167 0.16331,-1.83046 0.48871,-2.63638 0.32662,-0.80605 0.77202,-1.5052 1.33866,-2.09745 0.56541,-0.59238 1.23721,-1.05844 2.01418,-1.3983 0.77697,-0.33986 1.61581,-0.50986 2.51773,-0.50986 0.90069,0 1.74572,0.17 2.53135,0.50986 0.78686,0.33986 1.46239,0.80592 2.02902,1.3983 0.56541,0.59225 1.01205,1.2914 1.33743,2.09745 0.32663,0.80592 0.48994,1.68471 0.48994,2.63638 0,0.93211 -0.16331,1.80608 -0.48994,2.62178 -0.32538,0.81557 -0.77202,1.51966 -1.33743,2.11191 -0.56663,0.59238 -1.24216,1.05844 -2.02902,1.39831 -0.78563,0.33986 -1.63066,0.50985 -2.53135,0.50985 z m 51.99391,-10.07932 V 198.203 h -3.94178 v -20.39175 h 3.97146 l 10.01277,13.19637 v -13.19637 h 3.91331 V 198.203 h -3.68319 z"
     id="path89"
     inkscape:connector-curvature="0"
     style="clip-rule:evenodd;fill:#ffffff;fill-rule:evenodd;stroke-width:1.23721349" />
  <path
     d="m 402.35834,68.241736 c -9.18658,0 -16.85322,7.665661 -16.85322,16.852411 v 29.439193 c 0,9.18669 7.66664,16.85241 16.85322,16.85241 h 53.35373 c 9.18658,0 16.85206,-7.66572 16.85206,-16.85241 V 85.094147 c 0,-9.18675 -7.66548,-16.852411 -16.85206,-16.852411 z m 3.81774,17.901251 h 45.32239 v 27.341393 h -45.32239 z"
     id="path91"
     inkscape:connector-curvature="0"
     style="fill:#e2232e;stroke-width:1.15409315" />
  <path
     d="M 0.58621745,69.499801 V 131.455 H 21.256486 V 87.401067 h 39.02335 V 131.455 H 80.554482 V 86.352227 c 0,-9.18677 -7.665717,-16.852426 -16.852414,-16.852426 z"
     id="path93"
     inkscape:connector-curvature="0"
     style="fill:#e2232e;stroke-width:1.15409315" />
  <path
     d="m 94.539436,69.499801 v 16.292926 h 56.151594 v 4.4054 h -43.84446 c -9.186697,0 -16.852414,7.73565 -16.852414,16.922353 v 7.4821 c 0,9.1867 7.665717,16.85242 16.852414,16.85242 h 43.84446 9.16004 11.11853 V 86.352227 c 0,-9.18677 -7.66549,-16.852426 -16.85207,-16.852426 z M 111.1121,106.70085 h 39.57893 v 8.81081 H 111.1121 Z"
     id="path95"
     inkscape:connector-curvature="0"
     style="fill:#e2232e;stroke-width:1.15409315" />
  <path
     d="M 183.69694,69.499801 V 131.455 H 204.3956 V 87.401067 h 21.25724 V 131.455 H 246.3515 V 87.401067 h 21.67733 V 131.455 H 288.3074 V 86.352227 c 0,-9.18677 -7.66549,-16.852426 -16.85207,-16.852426 z"
     id="path97"
     inkscape:connector-curvature="0"
     style="fill:#e2232e;stroke-width:1.15409315" />
  <path
     d="m 317.18627,68.241736 c -9.18658,0 -16.85207,7.665661 -16.85207,16.852411 v 29.439193 c 0,9.18669 7.66549,16.85241 16.85207,16.85241 h 56.64174 V 113.48438 H 321.39987 V 86.142987 h 52.42814 V 68.241736 Z"
     id="path99"
     inkscape:connector-curvature="0"
     style="fill:#e2232e;stroke-width:1.15409315" />
  <path
     d="m 485.81889,68.81427 c 2.70173,2.3e-5 5.02146,0.968088 6.96265,2.904147 1.94003,1.93612 2.91062,4.26337 2.91062,6.98177 0,2.71841 -0.96598,5.04783 -2.89793,6.98832 -1.93195,1.94049 -4.25629,2.91074 -6.97534,2.91074 -2.72712,0 -5.0607,-0.96805 -7.00073,-2.90416 -1.94118,-1.93611 -2.91062,-4.26772 -2.91062,-6.9949 0,-2.72715 0.97175,-5.05657 2.91639,-6.98832 1.94581,-1.931702 4.27707,-2.897574 6.99496,-2.897597 z m -0.0254,18.159087 c 2.26318,0 4.20667,-0.81063 5.82702,-2.43213 1.6215,-1.62139 2.43283,-3.56846 2.43283,-5.84104 0,-2.27261 -0.80902,-4.21526 -2.42591,-5.82796 -1.61688,-1.61269 -3.56153,-2.41903 -5.83394,-2.41904 -2.27356,1e-5 -4.2159,0.80635 -5.82817,2.41904 -1.61342,1.6127 -2.41898,3.55535 -2.41898,5.82796 0,2.27258 0.80556,4.21965 2.41898,5.84104 1.61227,1.6215 3.55461,2.43213 5.82817,2.43213 z m 4.45711,-2.79267 h -1.96657 l -0.82634,-2.32065 c -0.49741,-1.38976 -1.43684,-2.08472 -2.81829,-2.08472 h -1.35029 v 4.40537 h -1.71729 v -10.63325 h 3.99893 c 2.81368,2e-5 4.22168,0.97464 4.22168,2.92381 0,1.87931 -0.92213,2.88887 -2.76637,3.02872 0.94405,0.28847 1.64228,0.96154 2.09699,2.01915 z m -6.96149,-5.88695 h 2.15008 c 1.68728,0 2.53092,-0.55503 2.53092,-1.66513 0,-1.09261 -0.87018,-1.63891 -2.6094,-1.63891 h -2.0716 z"
     id="path101"
     inkscape:connector-curvature="0"
     style="fill:#e2232e;stroke-width:1.15409315" />
  <g
     id="g48"
     transform="matrix(0.92617411,0,0,0.92617411,43.154582,-109.63439)">
    <path
       d="m 98.368707,123.56449 -3.911684,9.67624 h 7.837657 z m -1.627486,-2.59162 h 3.269259 l 8.12318,19.44364 h -2.99801 l -1.94157,-4.98788 h -9.607908 l -1.941568,4.98788 h -3.040839 z"
       style="font-style:normal;font-weight:normal;font-size:40px;line-height:125%;font-family:sans-serif;letter-spacing:0px;word-spacing:0px;fill:#ffffff;fill-opacity:1;stroke:#ffffff;stroke-width:0.69800001;stroke-linecap:butt;stroke-linejoin:miter;stroke-miterlimit:4;stroke-dasharray:none;stroke-opacity:1"
       id="path36"
       inkscape:connector-curvature="0" />
    <path
       d="m 149.94112,131.30027 q 0.92796,0.28651 1.79881,1.22418 0.88512,0.93767 1.77025,2.5786 l 2.92663,5.31346 h -3.09794 l -2.72677,-4.98788 q -1.05644,-1.95348 -2.05577,-2.59162 -0.98506,-0.63814 -2.69821,-0.63814 h -3.14077 v 8.21764 h -2.88381 v -19.44364 h 6.50997 q 3.65472,0 5.45352,1.39348 1.79881,1.39349 1.79881,4.2065 0,1.83627 -0.94223,3.04743 -0.92796,1.21115 -2.71249,1.67999 z m -7.22378,-8.16555 v 6.9023 h 3.62617 q 2.08433,0 3.14077,-0.87256 1.07072,-0.88557 1.07072,-2.59161 0,-1.70604 -1.07072,-2.56557 -1.05644,-0.87256 -3.14077,-0.87256 z"
       style="font-style:normal;font-weight:normal;font-size:40px;line-height:125%;font-family:sans-serif;letter-spacing:0px;word-spacing:0px;fill:#ffffff;fill-opacity:1;stroke:#ffffff;stroke-width:0.69800001;stroke-linecap:butt;stroke-linejoin:miter;stroke-miterlimit:4;stroke-dasharray:none;stroke-opacity:1"
       id="path38"
       inkscape:connector-curvature="0" />
    <path
       d="m 200.69712,122.47054 v 2.77394 q -1.45617,-1.2372 -3.11221,-1.84929 -1.64177,-0.61209 -3.49768,-0.61209 -3.65472,0 -5.59629,2.04464 -1.94157,2.03162 -1.94157,5.88649 0,3.84184 1.94157,5.88649 1.94157,2.03161 5.59629,2.03161 1.85591,0 3.49768,-0.61209 1.65604,-0.61209 3.11221,-1.84929 v 2.74789 q -1.51328,0.93768 -3.21215,1.40651 -1.6846,0.46884 -3.56906,0.46884 -4.83964,0 -7.62351,-2.69581 -2.78386,-2.70882 -2.78386,-7.38415 0,-4.68836 2.78386,-7.38416 2.78387,-2.70883 7.62351,-2.70883 1.91302,0 3.59761,0.46884 1.69888,0.45581 3.1836,1.38046 z"
       style="font-style:normal;font-weight:normal;font-size:40px;line-height:125%;font-family:sans-serif;letter-spacing:0px;word-spacing:0px;fill:#ffffff;fill-opacity:1;stroke:#ffffff;stroke-width:0.69800001;stroke-linecap:butt;stroke-linejoin:miter;stroke-miterlimit:4;stroke-dasharray:none;stroke-opacity:1"
       id="path40-3"
       inkscape:connector-curvature="0" />
    <path
       d="m 238.86281,123.56449 -3.91168,9.67624 h 7.83765 z m -1.62749,-2.59162 h 3.26926 l 8.12318,19.44364 h -2.998 l -1.94157,-4.98788 h -9.60792 l -1.94157,4.98788 h -3.04083 z"
       style="font-style:normal;font-weight:normal;font-size:40px;line-height:125%;font-family:sans-serif;letter-spacing:0px;word-spacing:0px;fill:#ffffff;fill-opacity:1;stroke:#ffffff;stroke-width:0.69800001;stroke-linecap:butt;stroke-linejoin:miter;stroke-miterlimit:4;stroke-dasharray:none;stroke-opacity:1"
       id="path42"
       inkscape:connector-curvature="0" />
    <path
       d="m 277.21144,123.13472 v 15.11994 h 3.48341 q 4.41135,0 6.45285,-1.82325 2.05578,-1.82325 2.05578,-5.75625 0,-3.90696 -2.05578,-5.71719 -2.0415,-1.82325 -6.45285,-1.82325 z m -2.8838,-2.16185 h 5.92464 q 6.19589,0 9.09396,2.3572 2.89808,2.34418 2.89808,7.34509 0,5.02695 -2.91235,7.38415 -2.91235,2.3572 -9.07969,2.3572 h -5.92464 z"
       style="font-style:normal;font-weight:normal;font-size:40px;line-height:125%;font-family:sans-serif;letter-spacing:0px;word-spacing:0px;fill:#ffffff;fill-opacity:1;stroke:#ffffff;stroke-width:0.69800001;stroke-linecap:butt;stroke-linejoin:miter;stroke-miterlimit:4;stroke-dasharray:none;stroke-opacity:1"
       id="path44"
       inkscape:connector-curvature="0" />
    <path
       d="m 321.42893,120.97287 h 13.47677 v 2.21394 h -10.59297 v 5.75626 h 10.15041 v 2.21394 h -10.15041 v 7.04556 h 10.84994 v 2.21394 h -13.73374 z"
       style="font-style:normal;font-weight:normal;font-size:40px;line-height:125%;font-family:sans-serif;letter-spacing:0px;word-spacing:0px;fill:#ffffff;fill-opacity:1;stroke:#ffffff;stroke-width:0.69800001;stroke-linecap:butt;stroke-linejoin:miter;stroke-miterlimit:4;stroke-dasharray:none;stroke-opacity:1"
       id="path46"
       inkscape:connector-curvature="0" />
  </g>
</svg>
